/* XPM */
static char * rfk_xpm[] = {
"32 26 62 1",
" 	c None",
".	c #050505",
"+	c #0A0A0A",
"@	c #0B0B0B",
"#	c #020202",
"$	c #000000",
"%	c #545454",
"&	c #656565",
"*	c #090909",
"=	c #030303",
"-	c #797979",
";	c #6C6C6C",
">	c #7A7A7A",
",	c #6B6B6B",
"'	c #686868",
")	c #808080",
"!	c #6D6D6D",
"~	c #777777",
"{	c #010101",
"]	c #696969",
"^	c #FF0000",
"/	c #787878",
"(	c #272727",
"_	c #6F6F6F",
":	c #747474",
"<	c #0D0D0D",
"[	c #323232",
"}	c #0E0E0E",
"|	c #494949",
"1	c #7D7D7D",
"2	c #070707",
"3	c #7C7C7C",
"4	c #7B7B7B",
"5	c #7E7E7E",
"6	c #757575",
"7	c #0C0C0C",
"8	c #040404",
"9	c #666666",
"0	c #818181",
"a	c #828282",
"b	c #878787",
"c	c #939393",
"d	c #676767",
"e	c #8C8C8C",
"f	c #858585",
"g	c #898989",
"h	c #717171",
"i	c #1B1B1B",
"j	c #767676",
"k	c #6A6A6A",
"l	c #7F7F7F",
"m	c #080808",
"n	c #0F0F0F",
"o	c #8B8B8B",
"p	c #727272",
"q	c #707070",
"r	c #6E6E6E",
"s	c #060606",
"t	c #848484",
"u	c #888888",
"v	c #606060",
"w	c #3E3E3E",
".+@@@@@@@@@@@@@@@@@@@@@@@@@@@@+#",
"$$$$$%$&$$$$$$$*+==$$$$$$$$$$$$$",
"$$$$.-+-;$$$$$$>,''$$$$$$$$$$$$$",
"$$$$.).!~$$$$$&>{]]$$$$^^$^^$$$$",
"$$$$.).=/($$$$~_$]]$$$^^^^^^^$$$",
"$$$$.).$:><[}|12$]]$$$$^^^^^$$$$",
"$$$$.-.$.3-1456$$''$$$$$^^^$$$$$",
"$$$$$]$$$<=#$7$$$88$$$$$$^$$$$$$",
"$$$$.6.$8$$$$$8{$99$$$$$$$$$$$$$",
"$$$$.).:0){$$9)a+]]$$$$$$$$$$$$$",
"$$$$.)+b$cd$$3$e6]]$$$$$$$$$$$$$",
"$$$$.)@f$e%$$4$gh]]{.#8888$$$$$$",
"$$$$.3.]66$$$i~j$]]k155l56@$$$$$",
"$$$$$d$$$$$$$${$$mm8@727+m#$$$$$",
"$$$$$$$$$$#'n$$$$$$$$$$$$7h#$$$$",
"$$$$={=$$$!o-}$$$={$$$$$$=1,$$$$",
"$$$2:lj,p$$a~7$q,15k$$$$$$r4#$$$",
"$$$24g3'!'{s+*;;rtu;$$$$$$.j@$$$",
"$$$$[vi$$$$$$$$$*[%]j/j//qsp/$$$",
"$$$$$$$$$$$$$$$$$$$<']']'9$.,#$$",
"$$$$$$$$$$$$$$$$${:v$$$$$$$$=;!$",
"$7_]$$$#q!$$$$$$$-3=$$$$$$$$$;0(",
"$t0k$$$1bq{$$$$$.uv$$$$$$$$$$$3k",
"!o[8$$#fq=$$$$$$su|$$$$$$$$$$$1;",
"%30hrqr~06hr_qrq%/:(_qrr_q_r;9)w",
"##||_q_si[;hqqqq|7/hhqphhh_hq_h$"};
